<?xml version="1.0" standalone="no"?>
<!DOCTYPE svg PUBLIC "-//W3C//DTD SVG 20010904//EN"
 "http://www.w3.org/TR/2001/REC-SVG-20010904/DTD/svg10.dtd">
<svg version="1.0" xmlns="http://www.w3.org/2000/svg"
 width="222.000000pt" height="222.000000pt" viewBox="0 0 222.000000 222.000000"
 preserveAspectRatio="xMidYMid meet">
<metadata>
Created by potrace 1.11, written by Peter Selinger 2001-2013
</metadata>
<g transform="translate(0.000000,222.000000) scale(0.100000,-0.100000)"
fill="#000000" stroke="none">
<path d="M1030 1755 c-85 -44 -230 -93 -325 -109 -16 -3 -51 -10 -77 -14 -26
-5 -50 -7 -53 -4 -8 8 -6 -18 6 -67 10 -44 12 -57 24 -146 27 -212 27 -406 -1
-547 -7 -35 25 -108 74 -167 73 -90 158 -154 287 -216 119 -57 137 -61 188
-40 219 91 358 202 427 337 23 48 27 64 20 90 -20 74 -28 295 -15 413 15 136
23 193 36 250 4 22 9 52 9 68 0 23 -4 27 -29 27 -85 0 -327 71 -429 126 -34
19 -66 34 -70 33 -4 0 -36 -16 -72 -34z m336 -110 c106 -30 123 -34 187 -42
46 -6 48 -7 42 -32 -4 -14 -9 -35 -11 -46 -2 -11 -6 -31 -9 -45 -30 -151 -40
-400 -22 -540 13 -94 10 -108 -26 -168 -59 -98 -178 -198 -307 -258 -30 -14
-68 -32 -84 -40 -35 -17 -65 -9 -161 39 -117 58 -195 119 -268 209 -60 75 -72
115 -58 199 10 65 8 395 -4 459 -6 36 -23 132 -31 185 l-5 31 78 13 c104 19
273 73 352 114 l64 33 86 -42 c47 -24 127 -54 177 -69z"/>
<path d="M1032 1672 c-74 -35 -219 -76 -308 -88 -77 -9 -76 -7 -61 -109 l13
-90 424 0 424 0 13 73 c6 39 14 81 18 91 5 16 -1 20 -42 26 -96 14 -280 67
-343 99 l-65 32 -73 -34z"/>
<path d="M686 1167 c1 -106 -3 -222 -8 -259 -11 -64 -10 -68 17 -115 65 -110
198 -212 376 -286 36 -15 37 -15 144 38 108 54 167 96 235 168 47 48 94 133
86 154 -18 46 -27 321 -14 445 l5 46 -422 1 -421 0 2 -192z m409 174 c6 -1 9
-22 7 -50 l-4 -49 -121 0 c-67 0 -128 -1 -134 -1 -10 -1 -13 -57 -13 -246 l0
-245 135 0 c122 0 135 -2 136 -17 3 -74 0 -205 -4 -210 -9 -8 -147 59 -214
105 -76 53 -145 123 -173 177 -21 41 -22 50 -12 117 6 40 9 152 8 248 l-3 175
191 -1 c105 -1 196 -2 201 -3z m-7 -250 l1 -38 -75 0 -74 1 2 37 c1 36 3 38
37 41 20 2 52 1 72 0 35 -4 37 -6 37 -41z m7 -153 c5 -4 8 -30 6 -53 -1 -19
-8 -20 -81 -20 l-79 0 2 35 c2 30 6 36 32 40 32 5 114 4 120 -2z"/>
</g>
</svg>
